Coordinates
version=1
nRows=14
nColumns=24
inDegrees=yes

Units are S.I. units (second, meters, Newtons, ...)
Angles are in degrees.

endheader
time	pelvis_tilt	pelvis_list	pelvis_rotation	pelvis_tx	pelvis_ty	pelvis_tz	hip_flexion_r	hip_adduction_r	hip_rotation_r	knee_angle_r	ankle_angle_r	subtalar_angle_r	mtp_angle_r	hip_flexion_l	hip_adduction_l	hip_rotation_l	knee_angle_l	ankle_angle_l	subtalar_angle_l	mtp_angle_l	lumbar_extension	lumbar_bending	lumbar_rotation
      2.23000000	    -13.06284878	      0.42347360	      0.75651729	      0.06543472	      0.94553837	     -0.01856072	     38.46411676	     -0.78594807	     -4.75127933	     -7.52440987	     -1.52833001	      0.00000000	      0.00000000	      4.84432157	      5.01541017	      4.80453076	    -15.96388874	     15.91212894	      0.00000000	      0.00000000	      6.37769280	     -0.68268488	     -3.94595424
      2.24000000	    -13.18038639	      0.34248519	      0.94271395	      0.06673852	      0.94434404	     -0.01752597	     38.43571217	     -0.56312624	     -4.51450295	     -8.04928204	     -1.81905165	      0.00000000	      0.00000000	      4.41457121	      4.83772443	      4.89403699	    -15.99674710	     15.87952146	      0.00000000	      0.00000000	      6.58904487	     -0.66074918	     -4.06978217
      2.25000000	    -13.29426088	      0.27534515	      1.00375996	      0.06824077	      0.94317996	     -0.01647340	     38.40178455	     -0.28831330	     -4.19857086	     -8.58156100	     -2.48397629	      0.00000000	      0.00000000	      3.91411571	      4.67288001	      5.00708755	    -15.91549595	     15.75579000	      0.00000000	      0.00000000	      6.81777528	     -0.60168121	     -4.01760569
      2.26000000	    -13.39205662	      0.18877029	      1.18650629	      0.06979122	      0.94204550	     -0.01529679	     38.35529480	     -0.04882213	     -3.84538771	     -9.15822853	     -2.95897792	      0.00000000	      0.00000000	      3.47284057	      4.47067309	      5.08172041	    -15.98138230	     15.64963563	      0.00000000	      0.00000000	      7.03307647	     -0.58117229	     -4.17270601
      2.27000000	    -13.47812369	      0.08080932	      1.30091729	      0.07144050	      0.94099512	     -0.01414308	     38.34998015	      0.23310611	     -3.39595769	     -9.83757997	     -3.62950595	      0.00000000	      0.00000000	      3.02218399	      4.25324743	      5.21382266	    -16.05187893	     15.47367952	      0.00000000	      0.00000000	      7.23943319	     -0.49238381	     -4.24367756
      2.28000000	    -13.56086405	     -0.03872314	      1.36179064	      0.07316440	      0.94005706	     -0.01290135	     38.37708765	      0.54859704	     -2.83986258	    -10.57280243	     -4.44657172	      0.00000000	      0.00000000	      2.57832836	      4.01787163	      5.32502053	    -16.14709138	     15.21283587	      0.00000000	      0.00000000	      7.44370585	     -0.37973936	     -4.27474099
      2.29000000	    -13.63762903	     -0.16923558	      1.36729436	      0.07496434	      0.93928032	     -0.01156562	     38.43269284	      0.90470291	     -2.19181388	    -11.36745951	     -5.29418376	      0.00000000	      0.00000000	      2.16421214	      3.76987639	      5.39108721	    -16.29229711	     14.86326200	      0.00000000	      0.00000000	      7.64383450	     -0.23917630	     -4.27150988
      2.30000000	    -13.79035792	     -0.22080843	      1.07550832	      0.07685281	      0.93861692	     -0.00977723	     38.57938444	      1.37218632	     -1.13963043	    -12.11509377	     -6.54107578	      0.00000000	      0.00000000	      1.80445715	      3.57795007	      5.00134968	    -16.36488564	     14.16079943	      0.00000000	      0.00000000	      7.94610081	     -0.13737443	     -3.95015290
      2.31000000	    -13.83846263	     -0.39013979	      0.96461983	      0.07872105	      0.93822304	     -0.00818964	     38.74963982	      1.83050627	     -0.24840602	    -13.25808995	     -6.98380369	      0.00000000	      0.00000000	      1.45574063	      3.28051399	      4.90295011	    -16.66221860	     13.57982836	      0.00000000	      0.00000000	      8.09976481	      0.08094989	     -3.89760970
      2.32000000	    -13.81657182	     -0.65879589	      1.02739180	      0.08064721	      0.93817192	     -0.00684284	     38.84115011	      2.25839587	      0.44890505	    -14.46557792	     -7.30424877	      0.00000000	      0.00000000	      1.10388675	      2.89307412	      5.10612399	    -17.06875756	     13.13255962	      0.00000000	      0.00000000	      8.16904802	      0.39815510	     -4.09738392
      2.33000000	    -13.77445198	     -0.92546621	      0.88504958	      0.08248040	      0.93831750	     -0.00520208	     38.99577302	      2.81142608	      1.25383164	    -15.84692109	     -7.42080328	      0.00000000	      0.00000000	      0.85753566	      2.50693373	      5.08246917	    -17.69260619	     12.33386399	      0.00000000	      0.00000000	      8.18386816	      0.74599040	     -4.07194575
      2.34000000	    -13.71472302	     -1.19281167	      0.73346180	      0.08440243	      0.93872899	     -0.00342990	     39.10524919	      3.37964427	      2.05833925	    -17.25516277	     -7.32292517	      0.00000000	      0.00000000	      0.65913361	      2.10560376	      4.93197640	    -18.39269971	     11.39456702	      0.00000000	      0.00000000	      8.18885349	      1.08500499	     -4.08607969
      2.35000000	    -13.66138968	     -1.31295766	      0.34398888	      0.08654532	      0.93928656	     -0.00126739	     39.21231315	      3.97337084	      3.06011262	    -18.75119162	     -6.46563404	      0.00000000	      0.00000000	      0.46514900	      1.82320847	      4.25615100	    -19.05500963	      9.90922182	      0.00000000	      0.00000000	      8.22928590	      1.28830838	     -3.82826520
      2.36000000	    -13.49526945	     -1.62536973	      0.23505022	      0.08851662	      0.94027078	      0.00053471	     39.04152626	      4.51844063	      3.47429224	    -19.92653293	     -6.00129472	      0.00000000	      0.00000000	      0.40772991	      1.35547458	      3.98905644	    -20.14140860	      8.57786733	      0.00000000	      0.00000000	      8.10583474	      1.66212139	     -3.92597085
